name analog
datacolumns 19
datarows 51
range 0.0 0.025
endheader
time	ground_force_vx	ground_force_vy	ground_force_vz	ground_force_px	ground_force_py	ground_force_pz	l_ground_force_vx	l_ground_force_vy	l_ground_force_vz	l_ground_force_px	l_ground_force_py	l_ground_force_pz	ground_torque_x	ground_torque_y	ground_torque_z	l_ground_torque_x	l_ground_torque_y	l_ground_torque_z
0.0	-0.0	-0.0	-0.0	-5.7751994132995605	38.60519790649414	-332.0169372558594	1.2419509887695312	-36.123573303222656	-315.5409545898437	-0.0	-0.0	-0.0	-0.0	-0.0	-0.0	81046.3828125	6555.43896484375	-2233.095458984375
0.0005	-0.0	-0.0	-0.0	-6.353088855743408	38.94577407836914	-332.51055908203125	0.844937801361084	-36.28863143920898	-313.8873291015625	-0.0	-0.0	-0.0	-0.0	-0.0	-0.0	81163.640625	6490.111328125	-2340.4033203125
0.001	-0.0	-0.0	-0.0	-5.922697067260742	38.83767318725586	-330.3610534667969	0.8793089389801025	-36.046756744384766	-313.9179992675781	-0.0	-0.0	-0.0	-0.0	-0.0	-0.0	81124.1953125	6701.818359375	-2241.063720703125
0.0015	-0.0	-0.0	-0.0	-6.14399528503418	38.7371711730957	-333.2192687988281	0.7983970642089844	-36.28878021240234	-312.7946472167969	-0.0	-0.0	-0.0	-0.0	-0.0	-0.0	81111.0390625	6734.7255859375	-2211.4716796875
0.002	-0.0	-0.0	-0.0	-5.720938205718994	39.160099029541016	-333.40185546875	0.3776912689208984	-35.82448196411133	-313.0990905761719	-0.0	-0.0	-0.0	-0.0	-0.0	-0.0	80936.5859375	6651.39892578125	-2348.469970703125
0.0025	-0.0	-0.0	-0.0	-6.590189933776856	39.07136154174805	-331.28277587890625	0.7983970642089844	-36.13486862182617	-312.35675048828125	-0.0	-0.0	-0.0	-0.0	-0.0	-0.0	80633.296875	6531.2255859375	-2370.350830078125
0.003	-0.0	-0.0	-0.0	-5.576350212097168	39.16080474853516	-329.92041015625	0.2887001037597656	-35.802433013916016	-311.6591796875	-0.0	-0.0	-0.0	-0.0	-0.0	-0.0	80480.9296875	6472.89501953125	-2345.32275390625
0.0035	-0.0	-0.0	-0.0	-5.665276527404785	38.67217254638672	-332.2977905273437	0.4771935641765594	-35.86977005004883	-313.0124816894531	-0.0	-0.0	-0.0	-0.0	-0.0	-0.0	80675.421875	6839.1640625	-2381.894775390625
0.004	-0.0	-0.0	-0.0	-6.066314697265625	39.01678466796875	-331.68023681640625	0.1996934413909912	-36.11248397827149	-311.7938842773437	-0.0	-0.0	-0.0	-0.0	-0.0	-0.0	80399.5078125	6772.7412109375	-2341.44482421875
0.0045000000000000005	-0.0	-0.0	-0.0	-5.8209075927734375	38.9943962097168	-332.87274169921875	0.5988304018974304	-35.49416732788086	-310.8326416015625	-0.0	-0.0	-0.0	-0.0	-0.0	-0.0	80636.9453125	6540.1376953125	-2355.751220703125
0.005	-0.0	-0.0	-0.0	-5.686473846435547	39.00603866577149	-332.9576110839844	0.5322647094726562	-35.549110412597656	-310.70166015625	-0.0	-0.0	-0.0	-0.0	-0.0	-0.0	80466.65625	6754.4052734375	-2337.15380859375
0.0055	-0.0	-0.0	-0.0	-6.020958423614502	38.74831771850586	-332.0759582519531	0.7546976804733276	-35.725467681884766	-311.5292358398437	-0.0	-0.0	-0.0	-0.0	-0.0	-0.0	80360.375	6621.8212890625	-2378.00732421875
0.006	-0.0	-0.0	-0.0	-6.2447357177734375	38.91732025146485	-333.8924560546875	0.7766748666763306	-35.62608337402344	-310.8304443359375	-0.0	-0.0	-0.0	-0.0	-0.0	-0.0	80751.453125	6637.1875	-2388.883544921875
0.006500000000000001	-0.0	-0.0	-0.0	-6.033849239349365	38.92836380004883	-334.10821533203125	0.2769161760807037	-35.802494049072266	-311.7924194335937	-0.0	-0.0	-0.0	-0.0	-0.0	-0.0	80687.859375	6523.3388671875	-2363.17431640625
0.007	-0.0	-0.0	-0.0	-6.233977317810059	38.896244049072266	-334.10821533203125	0.3977269530296325	-36.11289978027344	-312.6288757324219	-0.0	-0.0	-0.0	-0.0	-0.0	-0.0	80465.5234375	6842.3486328125	-2374.843017578125
0.0075	-0.0	-0.0	-0.0	-6.523055076599121	39.217376708984375	-335.7471923828125	0.0993611738085746	-35.86920928955078	-310.2142944335937	-0.0	-0.0	-0.0	-0.0	-0.0	-0.0	80344.5703125	6774.09521484375	-2363.18359375
0.008	-0.0	-0.0	-0.0	-6.61218786239624	39.217376708984375	-334.8985900878906	0.5216915607452393	-35.770286560058594	-311.2189636230469	-0.0	-0.0	-0.0	-0.0	-0.0	-0.0	80321.1875	6513.77587890625	-2348.637939453125
0.0085	-0.0	-0.0	-0.0	-6.444249153137207	39.31704711914063	-335.12603759765625	0.4330441057682037	-35.70288848876953	-310.78631591796875	-0.0	-0.0	-0.0	-0.0	-0.0	-0.0	80499.421875	6481.15478515625	-2364.312255859375
0.009000000000000001	-0.0	-0.0	-0.0	-6.365356922149658	38.8031120300293	-335.06329345703125	0.3861457407474518	-35.43777847290039	-311.81298828125	-0.0	-0.0	-0.0	-0.0	-0.0	-0.0	80252.4296875	6674.0146484375	-2369.63134765625
0.0095	-0.0	-0.0	-0.0	-6.512367248535156	39.64666748046875	-337.286865234375	0.4539231657981872	-35.75996398925781	-310.6224975585937	-0.0	-0.0	-0.0	-0.0	-0.0	-0.0	80413.203125	6766.6064453125	-2359.154541015625
0.01	-0.0	-0.0	-0.0	-6.502033710479736	39.79345703125	-338.3872985839844	0.2558341026306152	-35.48480987548828	-309.4699401855469	-0.0	-0.0	-0.0	-0.0	-0.0	-0.0	80455.6015625	6717.6328125	-2390.95654296875
0.0105	-0.0	-0.0	-0.0	-6.66002082824707	40.07078552246094	-338.89031982421875	0.3446221649646759	-35.26070785522461	-309.1601257324219	-0.0	-0.0	-0.0	-0.0	-0.0	-0.0	79879.4375	6516.634765625	-2355.587890625
0.011	-0.0	-0.0	-0.0	-6.285503387451172	40.35570907592773	-340.5765686035156	0.2078942358493805	-35.63139724731445	-310.20654296875	-0.0	-0.0	-0.0	-0.0	-0.0	-0.0	80038.21875	6598.9169921875	-2437.957275390625
0.0115	-0.0	-0.0	-0.0	-6.650304317474365	40.41652297973633	-341.7178955078125	0.3346691727638244	-35.298545837402344	-306.7933044433594	-0.0	-0.0	-0.0	-0.0	-0.0	-0.0	79570.6484375	6501.99072265625	-2395.343017578125
0.012	-0.0	-0.0	-0.0	-6.482237339019775	40.436283111572266	-342.3506774902344	0.5122452974319458	-35.1619987487793	-307.1352233886719	-0.0	-0.0	-0.0	-0.0	-0.0	-0.0	79014.15625	6388.9384765625	-2434.32373046875
0.0125	-0.0	-0.0	-0.0	-6.116211414337158	41.19758605957031	-343.7626342773437	0.1475831121206283	-34.69062042236328	-305.0802001953125	-0.0	-0.0	-0.0	-0.0	-0.0	-0.0	78641.7109375	6755.89013671875	-2483.856689453125
0.013000000000000001	-0.0	-0.0	-0.0	-6.17533016204834	41.20792770385742	-345.7239685058594	0.2858717143535614	-34.563140869140625	-302.98590087890625	-0.0	-0.0	-0.0	-0.0	-0.0	-0.0	78596.5078125	6698.51220703125	-2404.76220703125
0.0135	-0.0	-0.0	-0.0	-5.679248809814453	41.45546340942383	-347.8044128417969	0.4832710027694702	-33.83696365356445	-301.31787109375	-0.0	-0.0	-0.0	-0.0	-0.0	-0.0	78115.21875	6385.85791015625	-2341.70556640625
0.014	-0.0	-0.0	-0.0	-5.560355186462402	41.8411979675293	-349.45477294921875	0.0194715317338705	-33.581626892089844	-298.524658203125	-0.0	-0.0	-0.0	-0.0	-0.0	-0.0	77365.828125	6482.23095703125	-2487.273193359375
0.0145	-0.0	-0.0	-0.0	-5.519361972808838	42.821319580078125	-349.29498291015625	-0.0	-33.385597229003906	-298.2135009765625	-0.0	-0.0	-0.0	-0.0	-0.0	-0.0	77112.484375	6520.19580078125	-2388.062744140625
0.015	-0.0	-0.0	-0.0	-6.056687831878662	43.05960464477539	-352.7124328613281	0.0503289140760898	-32.80556106567383	-295.4955749511719	-0.0	-0.0	-0.0	-0.0	-0.0	-0.0	76741.3125	6256.6796875	-2484.033203125
0.0155	-0.0	-0.0	-0.0	-6.295724391937256	43.89355850219727	-353.8106384277344	-0.1774215698242187	-32.69799041748047	-294.3348388671875	-0.0	-0.0	-0.0	-0.0	-0.0	-0.0	76331.4453125	6386.986328125	-2480.1015625
0.016	-0.0	-0.0	-0.0	-5.648695468902588	43.908973693847656	-356.9898986816406	-0.4944751262664795	-32.284446716308594	-293.48779296875	-0.0	-0.0	-0.0	-0.0	-0.0	-0.0	75714.0	6439.953125	-2461.189697265625
0.0165	-0.0	-0.0	-0.0	-6.305704116821289	45.029666900634766	-358.1990051269531	-0.2849003672599792	-32.13975143432617	-291.155517578125	-0.0	-0.0	-0.0	-0.0	-0.0	-0.0	74982.1015625	6380.51220703125	-2487.593994140625
0.017	-0.0	-0.0	-0.0	-5.9957780838012695	45.97262954711914	-361.4879150390625	-0.6631491184234619	-31.83779525756836	-289.4100952148437	-0.0	-0.0	-0.0	-0.0	-0.0	-0.0	74546.8828125	6347.0966796875	-2337.91552734375
0.0175	-0.0	-0.0	-0.0	-5.638792991638184	46.64878845214844	-364.59173583984375	-1.2050062417984009	-31.256681442260746	-286.2679748535156	-0.0	-0.0	-0.0	-0.0	-0.0	-0.0	74015.8125	6206.2822265625	-2539.5048828125
0.018000000000000002	-0.0	-0.0	-0.0	-5.30022668838501	47.604827880859375	-367.125	-0.6393212080001831	-30.894325256347656	-283.5111083984375	-0.0	-0.0	-0.0	-0.0	-0.0	-0.0	73786.7421875	6261.0888671875	-2467.35009765625
0.0185	-0.0	-0.0	-0.0	-5.931484222412109	48.56695556640625	-370.5499572753906	-0.9940098524093628	-30.38265991210937	-280.8252868652344	-0.0	-0.0	-0.0	-0.0	-0.0	-0.0	72946.3984375	6124.44921875	-2556.490234375
0.019	-0.0	-0.0	-0.0	-5.086390495300293	48.97785568237305	-373.9099731445313	-0.8345256447792053	-29.83474540710449	-279.39239501953125	-0.0	-0.0	-0.0	-0.0	-0.0	-0.0	72380.4453125	6249.24853515625	-2535.655517578125
0.0195	-0.0	-0.0	-0.0	-5.111966609954834	49.69952392578125	-376.13665771484375	-1.037644624710083	-29.949071884155277	-277.2616577148437	-0.0	-0.0	-0.0	-0.0	-0.0	-0.0	72048.8125	6098.2177734375	-2488.440185546875
0.02	-0.0	-0.0	-0.0	-5.183121204376221	50.3764877319336	-377.1256103515625	-1.5434881448745728	-28.97835922241211	-275.0265808105469	-0.0	-0.0	-0.0	-0.0	-0.0	-0.0	71063.2109375	6156.58984375	-2538.81396484375
0.0205	-0.0	-0.0	-0.0	-5.317238807678223	51.06288528442383	-381.3292541503906	-1.6678627729415894	-29.05783462524414	-273.76959228515625	-0.0	-0.0	-0.0	-0.0	-0.0	-0.0	70716.828125	6044.5771484375	-2651.616455078125
0.021	-0.0	-0.0	-0.0	-5.593947410583496	51.2412223815918	-382.6328125	-1.631774663925171	-28.784162521362305	-272.8988952636719	-0.0	-0.0	-0.0	-0.0	-0.0	-0.0	69888.4765625	6203.5146484375	-2600.9404296875
0.021500000000000002	-0.0	-0.0	-0.0	-5.361336708068848	52.42607116699219	-384.5354919433594	-2.075068712234497	-28.41365623474121	-270.558349609375	-0.0	-0.0	-0.0	-0.0	-0.0	-0.0	69609.84375	6079.13916015625	-2847.73291015625
0.022	-0.0	-0.0	-0.0	-5.496512413024902	52.14128875732422	-386.3333435058594	-2.2462158203125	-28.00654602050781	-268.0467834472656	-0.0	-0.0	-0.0	-0.0	-0.0	-0.0	69083.1796875	5888.73583984375	-2732.04541015625
0.0225	-0.0	-0.0	-0.0	-5.654490947723389	52.49781036376953	-388.43017578125	-2.6442596912384038	-27.174219131469727	-265.6708374023437	-0.0	-0.0	-0.0	-0.0	-0.0	-0.0	68692.625	6123.3134765625	-2859.383544921875
0.023	-0.0	-0.0	-0.0	-6.066314697265625	52.58266830444336	-387.9596862792969	-2.4669651985168457	-27.53107261657715	-264.939453125	-0.0	-0.0	-0.0	-0.0	-0.0	-0.0	68202.65625	6260.548828125	-2802.8310546875
0.0235	-0.0	-0.0	-0.0	-6.325523853302002	53.66990280151367	-390.2835693359375	-2.935853719711304	-26.824708938598636	-262.6798095703125	-0.0	-0.0	-0.0	-0.0	-0.0	-0.0	67668.5078125	6159.44677734375	-2851.033203125
0.024	-0.0	-0.0	-0.0	-6.238970756530762	53.55903625488281	-390.2638549804688	-3.0161666870117188	-26.303295135498047	-261.034423828125	-0.0	-0.0	-0.0	-0.0	-0.0	-0.0	67261.171875	5933.06494140625	-2937.219482421875
0.0245	-0.0	-0.0	-0.0	-7.290420055389404	52.89569854736328	-390.9046630859375	-3.2348732948303223	-25.77349090576172	-258.2180480957031	-0.0	-0.0	-0.0	-0.0	-0.0	-0.0	66600.421875	5862.208984375	-2956.63134765625
0.025	-0.0	-0.0	-0.0	-7.16145133972168	53.778419494628906	-391.2584228515625	-3.267211437225342	-25.701610565185547	-256.9755859375	-0.0	-0.0	-0.0	-0.0	-0.0	-0.0	66414.5390625	6029.40869140625	-3020.906982421875
